<svg xmlns="http://www.w3.org/2000/svg" width="116" height="40" viewBox="0 0 116 40" role="img" aria-labelledby="title desc">
  <title id="title">Animated number badge</title>
  <desc id="desc">A small outlined star followed by the number 2,082.</desc>
  <rect width="116" height="40" fill="none"/>
  <path
    d="M20 .625a1.875 1.875 0 0 1 1.683 1.045l4.705 9.538 10.525 1.53a1.875 1.875 0 0 1 1.04 3.198l-7.615 7.425 1.798 10.48a1.878 1.878 0 0 1-2.72 1.978L20 30.868l-9.415 4.95a1.875 1.875 0 0 1-2.72-1.975l1.8-10.485-7.62-7.422a1.875 1.875 0 0 1 1.04-3.2l10.525-1.528L18.318 1.67A1.875 1.875 0 0 1 20 .625Z"
    transform="translate(0 2) scale(.45)"
    fill="none"
    stroke="#27272a"
    stroke-width="1.3"
    stroke-linejoin="round"
  />
  <text
    x="30"
    y="27"
    fill="#27272a"
    font-family="ui-monospace, SFMono-Regular, Menlo, Monaco, Consolas, Liberation Mono, Courier New, monospace"
    font-size="24"
    font-weight="300"
  >2,082</text>
</svg>
